<svg width="48"
     height="48"
     xmlns="http://www.w3.org/2000/svg">
	<g style="display:inline">
		<path style="fill:#d0d0d0;fill-opacity:1"
		      d="M9.449 37.727c-.28-.73-.384-7.38-.23-14.777L9.5 9.5h29v29l-14.27.278c-11.14.216-14.383-.014-14.781-1.05ZM38 24V10H10v28h28zm-21.731 9.307c.973-.254 2.323-.237 3 .037.677.274-.119.481-1.769.461-1.65-.02-2.204-.244-1.231-.498Zm14.42.045c1.203-.261 2.388-1.354 2.633-2.429.345-1.519.414-1.45.311.312-.098 1.665-.795 2.308-2.633 2.429-2.082.136-2.134.084-.311-.312zm2.39-16.032c-.052-1.433-.85-2.33-2.329-2.614l-2.25-.434 2.281-.136c2.37-.141 3.786 1.857 2.892 4.081-.283.706-.55.302-.594-.897zm-16.81-3.013c.973-.254 2.323-.237 3 .037.677.274-.119.481-1.769.461-1.65-.02-2.204-.244-1.231-.498Z"
		      transform="translate(1.817 -1.052)"/>
		<path style="fill:#b9b9b9;fill-opacity:1"
		      d="M14.232 31c0-1.925.206-2.712.457-1.75.252.963.252 2.538 0 3.5-.251.963-.457.175-.457-1.75zm0-14c0-1.925.206-2.712.457-1.75.252.963.252 2.538 0 3.5-.251.963-.457.175-.457-1.75z"
		      transform="translate(1.817 -1.052)"/>
		<path style="fill:#606060;fill-opacity:1"
		      d="M11.31 30.5c.005-3.3.192-4.53.415-2.732.222 1.797.218 4.497-.01 6-.229 1.503-.41.032-.405-3.268Zm0-13c.005-3.3.192-4.53.415-2.732.222 1.797.218 4.497-.01 6-.229 1.503-.41.032-.405-3.268Z"
		      transform="translate(1.817 -1.052)"/>
		<path style="fill:#494949;fill-opacity:1"
		      d="M14.768 36.275c1.797-.222 4.497-.218 6 .01 1.503.229.032.41-3.268.405-3.3-.005-4.53-.192-2.732-.415zm15.931.02 5.2-.396.396-5.2.396-5.199-.096 5.5-.095 5.5-5.5.095-5.5.096Zm5.476-18.993L36 12.105l-5.25-.368-5.25-.367 5.281-.185c6.046-.212 6.543.368 5.957 6.95-.388 4.359-.389 4.358-.563-.833zm-21.407-6.027c1.797-.222 4.497-.218 6 .01 1.503.229.032.41-3.268.405-3.3-.005-4.53-.192-2.732-.415z"
		      transform="translate(1.817 -1.052)"/>
		<path style="fill:#333;fill-opacity:1"
		      d="M6.655 41.171C5.265 39.635 5 36.861 5 23.826c0-13.762.207-15.703 1.829-17.171C8.365 5.265 11.139 5 24.174 5c13.762 0 15.703.207 17.171 1.829C42.735 8.365 43 11.139 43 24.174c0 13.762-.207 15.703-1.829 17.171C39.635 42.735 36.861 43 23.826 43c-13.762 0-15.703-.207-17.171-1.829ZM39 24V9H9v30h30Zm-27 6.5V25h11v11H12Zm8 .5c0-2.667-.333-3-3-3s-3 .333-3 3 .333 3 3 3 3-.333 3-3zm5-.5V25h11v11H25Zm9 .5c0-2.667-.333-3-3-3s-3 .333-3 3 .333 3 3 3 3-.333 3-3zM12 17.5V12h11v11H12Zm8-.5c0-2.667-.333-3-3-3s-3 .333-3 3 .333 3 3 3 3-.333 3-3zm5 .5V12h11v11H25Zm9-.5c0-2.667-.333-3-3-3s-3 .333-3 3 .333 3 3 3 3-.333 3-3z"
		      transform="translate(1.817 -1.052)"/>
	</g>
</svg>
