<?xml version="1.0" encoding="UTF-8" standalone="no"?>
<svg
	viewBox="0 0 512 512"
	width="48"
	height="48"
	xmlns="http://www.w3.org/2000/svg"
>
  <!--!Font Awesome Free 6.7.2 by @fontawesome - https://fontawesome.com License - https://fontawesome.com/license/free Copyright 2025 Fonticons, Inc.-->
  <path d="m 0,256 a 256,256 0 1 1 512,0 256,256 0 1 1 -512,0 z m 161.5,-86.1 c -12.2,-5.2 -26.3,0.4 -31.5,12.6 -5.2,12.2 0.4,26.3 12.6,31.5 l 11.9,5.1 c 17.3,7.4 35.2,12.9 53.6,16.3 v 50.1 c 0,4.3 -0.7,8.6 -2.1,12.6 l -28.7,86.1 c -4.2,12.6 2.6,26.2 15.2,30.4 12.6,4.2 26.2,-2.6 30.4,-15.2 l 24.4,-73.2 c 1.3,-3.8 4.8,-6.4 8.8,-6.4 4,0 7.6,2.6 8.8,6.4 l 24.4,73.2 c 4.2,12.6 17.8,19.4 30.4,15.2 12.6,-4.2 19.4,-17.8 15.2,-30.4 l -28.7,-86.1 c -1.4,-4.1 -2.1,-8.3 -2.1,-12.6 v -50.1 c 18.4,-3.5 36.3,-8.9 53.6,-16.3 l 11.9,-5.1 c 12.2,-5.2 17.8,-19.3 12.6,-31.5 -5.2,-12.2 -19.3,-17.8 -31.5,-12.6 l -12,5.1 c -26.1,11.2 -54.2,17 -82.7,17 -28.5,0 -56.5,-5.8 -82.7,-17 l -11.9,-5.1 z M 256,160 a 40,40 0 1 0 0,-80 40,40 0 1 0 0,80 z" />
</svg>