<?xml version="1.0" encoding="UTF-8" standalone="no"?>
<svg
   viewBox="0 0 520 520"
   version="1.1"
   id="svg1"
   width="52"
   height="52"
   xmlns="http://www.w3.org/2000/svg"
   xmlns:svg="http://www.w3.org/2000/svg">
  <defs
     id="defs1" />
  <!--!Font Awesome Free 6.7.2 by @fontawesome - https://fontawesome.com License - https://fontawesome.com/license/free Copyright 2025 Fonticons, Inc.-->
  <path
     d="m 490.32119,64 c 0,-17.7 -14.3,-32 -32,-32 H 74.321188 c -17.7,0 -32,14.3 -32,32 0,17.7 14.3,32 32,32 H 458.32119 c 17.7,0 32,-14.3 32,-32 z m 0,256 c 0,-17.7 -14.3,-32 -32,-32 H 74.321188 c -17.7,0 -32,14.3 -32,32 0,17.7 14.3,32 32,32 H 458.32119 c 17.7,0 32,-14.3 32,-32 z M 42.321188,192 c 0,17.7 14.3,32 32,32 H 458.32119 c 17.7,0 32,-14.3 32,-32 0,-17.7 -14.3,-32 -32,-32 H 74.321188 c -17.7,0 -32,14.3 -32,32 z M 490.32119,448 c 0,-17.7 -14.3,-32 -32,-32 H 74.321188 c -17.7,0 -32,14.3 -32,32 0,17.7 14.3,32 32,32 H 458.32119 c 17.7,0 32,-14.3 32,-32 z"
     id="path1" />
</svg>
