<?xml version="1.0" encoding="UTF-8" standalone="no"?>
<!-- Created with Inkscape (http://www.inkscape.org/) -->

<svg
   version="1.1"
   id="svg1"
   width="543"
   height="262"
   viewBox="0 0 543 262"
   xmlns="http://www.w3.org/2000/svg"
   xmlns:svg="http://www.w3.org/2000/svg">
  <defs
     id="defs1" />
  <g
     id="layer1" />
  <g
     id="layer2">
    <g
       id="g1">
      <rect
         style="fill:#f3f7fc;fill-opacity:1;stroke:#e4ecf6;stroke-width:0.814816;stroke-linejoin:miter;stroke-miterlimit:4;stroke-dasharray:none;stroke-opacity:1"
         id="rect1"
         width="111.18518"
         height="71.185181"
         x="187.90331"
         y="96.138084" />
      <path
         d="m 190.6836,122.15628 a 24,24 0 1 1 48,0 24,24 0 1 1 -48,0 z m 15.14062,-8.07188 c -1.14375,-0.4875 -2.46562,0.0375 -2.95312,1.18126 -0.4875,1.14374 0.0375,2.46562 1.18125,2.95312 l 1.11562,0.47813 c 1.62188,0.69375 3.3,1.20937 5.025,1.52812 v 4.69688 c 0,0.40312 -0.0656,0.80625 -0.19687,1.18125 l -2.69063,8.07187 c -0.39375,1.18125 0.24375,2.45625 1.425,2.85 1.18125,0.39375 2.45625,-0.24375 2.85,-1.425 l 2.2875,-6.8625 c 0.12188,-0.35625 0.45,-0.6 0.825,-0.6 0.375,0 0.7125,0.24375 0.825,0.6 l 2.2875,6.8625 c 0.39375,1.18125 1.66875,1.81875 2.85,1.425 1.18125,-0.39375 1.81875,-1.66875 1.425,-2.85 l -2.69062,-8.07187 c -0.13125,-0.38438 -0.19688,-0.77813 -0.19688,-1.18125 v -4.69688 c 1.725,-0.32813 3.40313,-0.83437 5.025,-1.52812 l 1.11563,-0.47813 c 1.14375,-0.4875 1.66875,-1.80938 1.18125,-2.95312 -0.4875,-1.14376 -1.80938,-1.66876 -2.95313,-1.18126 l -1.125,0.47813 c -2.44687,1.05 -5.08125,1.59375 -7.75312,1.59375 -2.67188,0 -5.29688,-0.54375 -7.75313,-1.59375 l -1.11562,-0.47813 z m 8.85938,-0.92812 a 3.75,3.75 0 1 0 0,-7.5 3.75,3.75 0 1 0 0,7.5 z"
         id="path1-2"
         style="display:inline;stroke-width:0.09375;fill:#476285;fill-opacity:1" />
    </g>
  </g>
  <g
     id="layer3" />
</svg>
