<?xml version="1.0" encoding="UTF-8" standalone="no"?>
<!-- Created with Inkscape (http://www.inkscape.org/) -->

<svg
   version="1.1"
   id="svg1"
   width="543"
   height="262"
   viewBox="0 0 543 262"
   xmlns="http://www.w3.org/2000/svg"
   xmlns:svg="http://www.w3.org/2000/svg">
  <defs
     id="defs1" />
  <g
     id="layer1" />
  <g
     id="layer2">
    <g
       id="g1">
      <rect
         style="fill:#f3f7fc;fill-opacity:1;stroke:#e4ecf6;stroke-width:0.814816;stroke-linejoin:miter;stroke-miterlimit:4;stroke-dasharray:none;stroke-opacity:1"
         id="rect1"
         width="111.18518"
         height="71.185181"
         x="187.90331"
         y="96.138084" />
      <path
         d="m 194.48068,104.69648 c 0,-3.12187 2.5125,-5.634367 5.60625,-5.634367 2.8125,0 5.10937,2.053117 5.55,4.706247 3.05625,-0.7125 6.29062,0.0562 9.04687,2.8125 l -4.15312,4.15312 c -1.92188,-1.92187 -3.99375,-1.52812 -5.19375,-0.32812 -1.34063,1.34062 -1.34063,3.55312 0,4.89375 l 9.32812,9.32812 -4.125,4.15312 c -8.22187,-8.17499 -4.65937,-4.65937 -9.35625,-9.34687 -2.5125,-2.48437 -3.28125,-6.075 -2.325,-9.27187 -2.52187,-0.54375 -4.37812,-2.78438 -4.37812,-5.46563 z m 12.14062,10.9125 4.15313,4.15313 c 0.9375,-0.9375 8.40937,-8.40938 9.34687,-9.35625 1.34063,-1.34063 3.525,-1.34063 4.86563,0 1.2,1.2 1.59375,3.28125 -0.32813,5.19375 l 4.125,4.15312 c 2.925,-2.925 3.60938,-6.3375 2.70938,-9.4875 2.7375,-0.38437 4.86562,-2.7375 4.86562,-5.57812 0,-3.1125 -2.5125,-5.634377 -5.60625,-5.634377 -2.84062,0 -5.19375,2.109377 -5.57812,4.837497 -3.16875,-0.92812 -6.72188,-0.14062 -9.21563,2.35313 -1.71562,1.79062 -6.66562,6.70312 -9.3375,9.36562 z m 24.96563,14.26875 c 0.76875,-3.06562 -0.0844,-6.42187 -2.46563,-8.80313 -1.10625,-1.14374 0.46875,0.44063 -9.32812,-9.34687 l -4.15313,4.15313 9.34688,9.34687 c 1.34062,1.34063 1.34062,3.525 0,4.86562 -1.2,1.2 -3.28125,1.59375 -5.19375,-0.32812 l -4.125,4.15312 c 2.5875,2.83125 6.375,3.6375 9.62812,2.625 0.51563,2.56875 2.78438,4.50938 5.52188,4.50938 3.09375,0 5.60625,-2.5125 5.60625,-5.63438 0,-2.83125 -2.10938,-5.15625 -4.8375,-5.54062 z m -7.90313,-4.97812 -4.125,-4.15313 c -8.15625,8.1 -4.725,4.725 -9.34687,9.35625 -1.34063,1.34062 -3.525,1.34062 -4.86563,0 -1.22812,-1.25625 -1.58437,-3.30938 0.3,-5.19375 l -4.125,-4.15312 c -2.83125,2.83125 -3.5625,6.1125 -2.76562,9.21562 -2.50313,0.5625 -4.33125,2.80312 -4.33125,5.45625 0,3.12187 2.5125,5.63437 5.60625,5.63437 2.68125,0 4.92187,-1.85625 5.49375,-4.37812 3.06562,0.76875 6.42187,-0.0563 8.83125,-2.4375 3.00937,-3 1.14375,-1.1625 9.32812,-9.34687 z"
         id="path1"
         style="stroke-width:0.094;stroke-dasharray:none;stroke:none;stroke-opacity:1;fill:#486284;fill-opacity:1" />
    </g>
  </g>
  <g
     id="layer3" />
</svg>
