<?xml version="1.0" encoding="UTF-8" standalone="no"?>
<!-- Created with Inkscape (http://www.inkscape.org/) -->

<svg
   version="1.1"
   id="svg1"
   width="543"
   height="262"
   viewBox="0 0 543 262"
   xmlns="http://www.w3.org/2000/svg"
   xmlns:svg="http://www.w3.org/2000/svg">
  <defs
     id="defs1" />
  <g
     id="layer1" />
  <g
     id="layer2">
    <g
       id="g1">
      <rect
         style="fill:#f3f7fc;fill-opacity:1;stroke:#e4ecf6;stroke-width:0.814816;stroke-linejoin:miter;stroke-miterlimit:4;stroke-dasharray:none;stroke-opacity:1"
         id="rect1"
         width="111.18518"
         height="71.185181"
         x="187.90331"
         y="96.138084" />
      <path
         d="m 236.48777,102.24876 c 0,-1.65149 -1.33425,-2.985737 -2.98574,-2.985737 h -35.82884 c -1.65149,0 -2.98574,1.334247 -2.98574,2.985737 0,1.65148 1.33425,2.98573 2.98574,2.98573 h 35.82884 c 1.65149,0 2.98574,-1.33425 2.98574,-2.98573 z m 0,23.88589 c 0,-1.65148 -1.33425,-2.98573 -2.98574,-2.98573 h -35.82884 c -1.65149,0 -2.98574,1.33425 -2.98574,2.98573 0,1.65149 1.33425,2.98574 2.98574,2.98574 h 35.82884 c 1.65149,0 2.98574,-1.33425 2.98574,-2.98574 z m -41.80032,-11.94294 c 0,1.65148 1.33425,2.98573 2.98574,2.98573 h 35.82884 c 1.65149,0 2.98574,-1.33425 2.98574,-2.98573 0,-1.65149 -1.33425,-2.98574 -2.98574,-2.98574 h -35.82884 c -1.65149,0 -2.98574,1.33425 -2.98574,2.98574 z m 41.80032,23.88589 c 0,-1.65148 -1.33425,-2.98573 -2.98574,-2.98573 h -35.82884 c -1.65149,0 -2.98574,1.33425 -2.98574,2.98573 0,1.65149 1.33425,2.98574 2.98574,2.98574 h 35.82884 c 1.65149,0 2.98574,-1.33425 2.98574,-2.98574 z"
         id="path1-0"
         style="stroke-width:0.0933043;fill:#486284;fill-opacity:1" />
    </g>
  </g>
  <g
     id="layer3" />
</svg>
