<?xml version="1.0" encoding="UTF-8" standalone="no"?>
<!-- Created with Inkscape (http://www.inkscape.org/) -->

<svg
   version="1.1"
   id="svg1"
   width="543"
   height="262"
   viewBox="0 0 543 262"
   xmlns="http://www.w3.org/2000/svg"
   xmlns:svg="http://www.w3.org/2000/svg">
  <defs
     id="defs1" />
  <g
     id="layer1" />
  <g
     id="layer2">
    <g
       id="g1">
      <rect
         style="fill:#f3f7fc;fill-opacity:1;stroke:#e4ecf6;stroke-width:0.814816;stroke-linejoin:miter;stroke-miterlimit:4;stroke-dasharray:none;stroke-opacity:1"
         id="rect1"
         width="111.18518"
         height="71.185181"
         x="187.90331"
         y="96.138084" />
      <path
         d="m 235.61118,122.51562 c 1.25949,-1.37843 1.25949,-3.61701 0,-4.99544 L 219.48975,99.876266 c -1.25949,-1.378431 -3.30489,-1.378431 -4.56438,0 -1.25949,1.378424 -1.25949,3.617004 0,4.995434 l 13.84428,15.15171 -13.8342,15.15172 c -1.25949,1.37843 -1.25949,3.617 0,4.99543 1.25948,1.37843 3.30489,1.37843 4.56438,0 l 16.12143,-17.64392 z m -35.46715,17.64392 16.12143,-17.64392 c 1.25949,-1.37843 1.25949,-3.61701 0,-4.99544 L 200.14403,99.876266 c -1.25948,-1.378431 -3.30489,-1.378431 -4.56437,0 -1.25949,1.378424 -1.25949,3.617004 0,4.995434 l 13.84427,15.15171 -13.8342,15.15172 c -1.25949,1.37843 -1.25949,3.617 0,4.99543 1.25949,1.37843 3.30489,1.37843 4.56438,0 z"
         id="path1-7"
         style="stroke-width:0.105409;fill:#476285;fill-opacity:1" />
    </g>
  </g>
  <g
     id="layer3" />
</svg>
