<?xml version="1.0" encoding="UTF-8" standalone="no"?>
<!-- Created with Inkscape (http://www.inkscape.org/) -->

<svg
   version="1.1"
   id="svg1"
   width="543"
   height="262"
   viewBox="0 0 543 262"
   sodipodi:docname="buttonPlus.svg"
   inkscape:version="1.3.2 (091e20e, 2023-11-25, custom)"
   xmlns:inkscape="http://www.inkscape.org/namespaces/inkscape"
   xmlns:sodipodi="http://sodipodi.sourceforge.net/DTD/sodipodi-0.dtd"
   xmlns="http://www.w3.org/2000/svg"
   xmlns:svg="http://www.w3.org/2000/svg">
  <defs
     id="defs1" />
  <sodipodi:namedview
     id="namedview1"
     pagecolor="#ffffff"
     bordercolor="#666666"
     borderopacity="1.0"
     inkscape:showpageshadow="2"
     inkscape:pageopacity="0.0"
     inkscape:pagecheckerboard="0"
     inkscape:deskcolor="#d1d1d1"
     showgrid="false"
     inkscape:zoom="3.9722224"
     inkscape:cx="243.44055"
     inkscape:cy="131.7902"
     inkscape:window-width="1056"
     inkscape:window-height="639"
     inkscape:window-x="1891"
     inkscape:window-y="251"
     inkscape:window-maximized="0"
     inkscape:current-layer="layer2" />
  <g
     inkscape:groupmode="layer"
     id="layer1"
     inkscape:label="buttons" />
  <g
     inkscape:groupmode="layer"
     id="layer2"
     inkscape:label="icon">
    <g
       id="g1">
      <rect
         style="fill:#f3f7fc;fill-opacity:1;stroke:#e4ecf6;stroke-width:0.814816;stroke-linejoin:miter;stroke-miterlimit:4;stroke-dasharray:none;stroke-opacity:1"
         id="rect1"
         width="111.18518"
         height="71.185181"
         x="187.90331"
         y="96.138084"
         inkscape:label="rect1" />
      <path
         d="m 218.60259,102.20262 c 0,-1.80043 -1.44374,-3.255032 -3.23074,-3.255032 -1.78701,0 -3.23074,1.454602 -3.23074,3.255032 v 14.64765 h -14.53836 c -1.78701,0 -3.23074,1.4546 -3.23074,3.25504 0,1.80043 1.44373,3.25503 3.23074,3.25503 h 14.53836 v 14.64765 c 0,1.80044 1.44373,3.25504 3.23074,3.25504 1.787,0 3.23074,-1.4546 3.23074,-3.25504 v -14.64765 h 14.53835 c 1.78701,0 3.23075,-1.4546 3.23075,-3.25503 0,-1.80044 -1.44374,-3.25504 -3.23075,-3.25504 h -14.53835 z"
         id="path1-1"
         style="stroke-width:0.10134;fill:#476285;fill-opacity:1"
         inkscape:label="plus" />
    </g>
  </g>
  <g
     inkscape:groupmode="layer"
     id="layer3"
     inkscape:label="text" />
</svg>
